<svg aria-hidden="true" style="position: absolute; width: 0; height: 0; overflow: hidden;" version="1.1" xmlns="http://www.w3.org/2000/svg" xmlns:xlink="http://www.w3.org/1999/xlink">
<defs>
<symbol id="icon-icon-facebook" viewBox="0 0 16 32">
<path fill="#fff" style="fill: var(--color1, #fff)" d="M179.2 89.6c0 49.485-40.115 89.6-89.6 89.6s-89.6-40.115-89.6-89.6c0-49.485 40.115-89.6 89.6-89.6s89.6 40.115 89.6 89.6z"></path>
</symbol>
<symbol id="icon-icon-linkedin" viewBox="0 0 32 32">
<path fill="#fff" style="fill: var(--color1, #fff)" d="M179.2 89.6c0 49.485-40.115 89.6-89.6 89.6s-89.6-40.115-89.6-89.6c0-49.485 40.115-89.6 89.6-89.6s89.6 40.115 89.6 89.6z"></path>
</symbol>
<symbol id="icon-icon-twitter" viewBox="0 0 40 32">
<path fill="#fff" style="fill: var(--color1, #fff)" d="M179.2 89.6c0 49.485-40.115 89.6-89.6 89.6s-89.6-40.115-89.6-89.6c0-49.485 40.115-89.6 89.6-89.6s89.6 40.115 89.6 89.6z"></path>
</symbol>
</defs>
</svg>
